REM DIRINDEX 1\2,1\3,1\4,1\5
REM DIRNAME folder01,folder02,folder03,folder04,folder05
TITLE ""
FILE "1Q_t_0413-0422.mp3" MP3
  TRACK 01 AUDIO
    TITLE "3:cjc004_2140"
    INDEX 01 00:00:00
  TRACK 02 AUDIO
    TITLE "0:"
    INDEX 01 00:00:74
  TRACK 03 AUDIO
    TITLE "4:cjc004_2141"
    INDEX 01 00:01:28
  TRACK 04 AUDIO
    TITLE "0:"
    INDEX 01 00:02:71
  TRACK 05 AUDIO
    TITLE "5:cjc004_2142"
    INDEX 01 00:03:19
  TRACK 06 AUDIO
    TITLE "0:"
    INDEX 01 00:07:35
  TRACK 07 AUDIO
    TITLE "3:cjc004_2143"
    INDEX 01 00:08:13
  TRACK 08 AUDIO
    TITLE "0:"
    INDEX 01 00:09:26
  TRACK 09 AUDIO
    TITLE "4:cjc004_2144"
    INDEX 01 00:09:53
  TRACK 10 AUDIO
    TITLE "0:"
    INDEX 01 00:11:03
  TRACK 11 AUDIO
    TITLE "5:cjc004_2145"
    INDEX 01 00:11:54
  TRACK 12 AUDIO
    TITLE "0:"
    INDEX 01 00:15:56
  TRACK 13 AUDIO
    TITLE "3:cjc004_2146"
    INDEX 01 00:16:32
  TRACK 14 AUDIO
    TITLE "0:"
    INDEX 01 00:17:53
  TRACK 15 AUDIO
    TITLE "4:cjc004_2147"
    INDEX 01 00:18:03
  TRACK 16 AUDIO
    TITLE "0:"
    INDEX 01 00:19:60
  TRACK 17 AUDIO
    TITLE "5:cjc004_2148"
    INDEX 01 00:20:10
  TRACK 18 AUDIO
    TITLE "0:"
    INDEX 01 00:24:00
  TRACK 19 AUDIO
    TITLE "3:cjc004_2149"
    INDEX 01 00:24:55
  TRACK 20 AUDIO
    TITLE "0:"
    INDEX 01 00:25:74
  TRACK 21 AUDIO
    TITLE "4:cjc004_2150"
    INDEX 01 00:26:15
  TRACK 22 AUDIO
    TITLE "0:"
    INDEX 01 00:27:30
  TRACK 23 AUDIO
    TITLE "5:cjc004_2151"
    INDEX 01 00:27:51
  TRACK 24 AUDIO
    TITLE "0:"
    INDEX 01 00:32:41
  TRACK 25 AUDIO
    TITLE "3:cjc004_2152"
    INDEX 01 00:33:21
  TRACK 26 AUDIO
    TITLE "0:"
    INDEX 01 00:34:30
  TRACK 27 AUDIO
    TITLE "4:cjc004_2153"
    INDEX 01 00:34:59
  TRACK 28 AUDIO
    TITLE "0:"
    INDEX 01 00:36:05
  TRACK 29 AUDIO
    TITLE "5:cjc004_2154"
    INDEX 01 00:36:33
  TRACK 30 AUDIO
    TITLE "0:"
    INDEX 01 00:40:42
  TRACK 31 AUDIO
    TITLE "3:cjc004_2155"
    INDEX 01 00:41:18
  TRACK 32 AUDIO
    TITLE "0:"
    INDEX 01 00:42:27
  TRACK 33 AUDIO
    TITLE "4:cjc004_2156"
    INDEX 01 00:42:51
  TRACK 34 AUDIO
    TITLE "0:"
    INDEX 01 00:43:66
  TRACK 35 AUDIO
    TITLE "5:cjc004_2157"
    INDEX 01 00:44:16
  TRACK 36 AUDIO
    TITLE "0:"
    INDEX 01 00:48:12
  TRACK 37 AUDIO
    TITLE "3:cjc004_2158"
    INDEX 01 00:48:67
  TRACK 38 AUDIO
    TITLE "0:"
    INDEX 01 00:49:65
  TRACK 39 AUDIO
    TITLE "4:cjc004_2159"
    INDEX 01 00:50:17
  TRACK 40 AUDIO
    TITLE "0:"
    INDEX 01 00:51:20
  TRACK 41 AUDIO
    TITLE "5:cjc004_2160"
    INDEX 01 00:51:48
  TRACK 42 AUDIO
    TITLE "0:"
    INDEX 01 00:55:65
  TRACK 43 AUDIO
    TITLE "3:cjc004_2161"
    INDEX 01 00:56:45
  TRACK 44 AUDIO
    TITLE "0:"
    INDEX 01 00:57:62
  TRACK 45 AUDIO
    TITLE "4:cjc004_2162"
    INDEX 01 00:58:15
  TRACK 46 AUDIO
    TITLE "0:"
    INDEX 01 00:59:30
  TRACK 47 AUDIO
    TITLE "5:cjc004_2163"
    INDEX 01 00:59:55
  TRACK 48 AUDIO
    TITLE "0:"
    INDEX 01 01:04:05
  TRACK 49 AUDIO
    TITLE "3:cjc004_2164"
    INDEX 01 01:04:58
  TRACK 50 AUDIO
    TITLE "0:"
    INDEX 01 01:05:71
  TRACK 51 AUDIO
    TITLE "4:cjc004_2165"
    INDEX 01 01:06:30
  TRACK 52 AUDIO
    TITLE "0:"
    INDEX 01 01:07:47
  TRACK 53 AUDIO
    TITLE "5:cjc004_2166"
    INDEX 01 01:07:70
  TRACK 54 AUDIO
    TITLE "0:"
    INDEX 01 01:13:38
  TRACK 55 AUDIO
    TITLE "3:cjc004_2167"
    INDEX 01 01:14:10
  TRACK 56 AUDIO
    TITLE "0:"
    INDEX 01 01:15:29
  TRACK 57 AUDIO
    TITLE "4:cjc004_2168"
    INDEX 01 01:15:58
  TRACK 58 AUDIO
    TITLE "0:"
    INDEX 01 01:18:62
  TRACK 59 AUDIO
    TITLE "5:cjc004_2169"
    INDEX 01 01:19:13
  TRACK 60 AUDIO
    TITLE "0:"
    INDEX 01 01:25:35
